<?xml version="1.0" encoding="UTF-8" ?>
<!DOCTYPE svg PUBLIC "-//W3C//DTD SVG 1.1//EN" "http://www.w3.org/Graphics/SVG/1.1/DTD/svg11.dtd">
<svg width="512pt" height="512pt" viewBox="0 0 512 512" version="1.1" xmlns="http://www.w3.org/2000/svg">
<g id="#ffffffff">
<path fill="#ffffff" opacity="1.00" d=" M 0.00 0.00 L 512.00 0.00 L 512.00 512.00 L 0.00 512.00 L 0.00 0.00 M 39.30 59.00 C 31.03 64.74 22.77 70.50 14.40 76.11 C 16.69 113.70 16.81 151.40 16.33 189.05 C 15.78 232.40 18.30 275.71 18.09 319.05 C 17.96 353.70 18.11 388.35 17.62 422.99 C 17.78 435.37 16.64 447.75 17.28 460.12 C 26.52 456.10 35.78 452.13 45.06 448.18 C 43.71 426.15 44.66 404.06 43.83 382.02 C 43.82 342.00 43.60 301.99 43.86 261.97 C 44.09 246.30 43.49 230.63 42.36 215.00 C 41.15 197.35 41.37 179.64 40.88 161.97 C 40.68 137.81 41.09 113.66 41.89 89.51 L 41.29 89.19 C 53.02 94.74 64.64 100.55 75.78 107.22 C 95.42 118.13 111.94 133.54 128.35 148.68 C 139.62 158.08 150.49 167.94 161.52 177.63 C 167.72 183.67 174.00 189.65 180.58 195.30 C 185.42 199.13 190.24 203.09 194.12 207.93 C 198.30 213.06 202.49 218.21 207.41 222.66 C 213.70 228.35 220.29 233.70 226.69 239.27 C 235.56 246.92 245.85 252.73 254.61 260.49 C 265.86 255.07 275.01 246.39 284.98 239.05 C 297.28 227.68 311.39 218.08 321.48 204.51 C 326.87 196.93 334.89 191.99 341.51 185.63 C 343.25 184.00 345.05 182.43 346.82 180.83 C 363.41 164.33 382.11 150.16 399.13 134.12 C 410.69 123.54 422.70 113.30 436.14 105.15 C 446.57 99.21 456.88 92.99 467.73 87.83 C 467.58 108.56 468.30 129.26 468.20 149.98 C 468.25 177.66 468.38 205.33 468.18 233.00 C 467.74 252.67 467.08 272.34 466.91 292.02 C 466.67 306.34 466.10 320.66 466.53 334.97 C 467.35 372.63 466.56 410.30 464.72 447.91 C 474.26 452.01 483.85 456.00 493.35 460.18 C 491.83 441.45 491.95 422.66 491.23 403.90 C 491.06 368.92 490.77 333.90 493.22 298.99 C 494.77 273.01 493.79 246.98 493.93 220.97 C 494.18 172.64 493.57 124.29 495.26 75.99 C 487.93 70.23 480.69 64.36 473.37 58.60 C 455.85 67.81 437.53 75.47 420.31 85.26 C 396.73 97.94 377.61 117.02 357.50 134.37 C 350.97 139.53 344.63 144.91 338.29 150.31 C 330.62 156.64 323.69 163.80 316.06 170.17 C 310.26 175.63 303.82 180.42 298.53 186.42 C 291.28 193.58 285.60 202.24 277.61 208.67 C 270.10 214.77 263.29 221.83 255.05 226.97 C 249.21 222.18 243.54 217.15 237.80 212.23 C 232.55 207.81 228.24 202.45 223.85 197.22 C 215.05 185.67 202.67 177.69 192.33 167.66 C 184.46 159.82 175.80 152.84 167.34 145.66 C 148.56 130.80 131.67 113.64 112.08 99.79 C 98.93 90.80 84.67 83.54 70.27 76.77 C 59.63 71.41 49.87 64.49 39.30 59.00 M 96.03 185.22 C 91.36 187.04 86.07 188.72 83.14 193.10 C 79.04 198.93 74.96 204.90 72.47 211.63 C 70.58 216.51 70.63 221.84 70.62 227.00 C 70.73 229.32 70.54 231.93 72.08 233.86 C 75.71 239.00 81.88 241.13 87.37 243.65 C 93.87 246.64 101.02 247.70 108.09 248.28 C 114.07 249.21 120.03 250.27 125.98 251.38 C 131.57 252.89 136.77 256.05 140.71 260.28 C 144.32 264.39 144.99 269.97 144.90 275.22 C 140.45 278.00 135.12 278.87 129.96 279.14 C 123.95 279.43 117.98 280.41 111.94 280.30 C 101.41 281.16 90.85 278.26 81.62 273.30 C 78.99 271.96 77.36 268.80 78.18 265.90 C 79.00 263.40 80.32 261.11 81.42 258.73 C 74.94 258.77 69.38 263.48 66.85 269.21 C 64.67 273.84 64.54 279.14 65.18 284.13 C 65.88 287.21 68.14 289.67 70.97 291.00 C 78.49 294.75 86.62 297.49 95.03 298.23 C 105.05 298.79 115.04 297.62 125.03 296.93 C 132.94 296.42 140.88 293.27 146.45 287.56 C 150.58 280.10 156.46 273.18 157.73 264.50 C 158.34 257.45 158.03 249.54 153.09 243.95 C 147.48 237.89 139.70 233.75 131.48 232.72 C 125.98 232.00 120.59 230.53 115.04 230.11 C 105.24 229.39 95.53 226.15 87.45 220.54 C 82.75 217.08 83.69 210.87 83.69 205.79 C 90.39 201.56 98.48 201.44 106.02 199.89 C 114.54 198.58 122.58 202.36 130.55 204.72 C 136.76 207.03 142.80 209.82 149.08 211.97 C 152.64 206.10 155.90 200.06 159.41 194.16 C 153.71 192.63 148.31 190.27 142.91 187.93 C 133.57 184.83 124.03 180.66 113.95 181.90 C 107.94 182.79 101.90 183.67 96.03 185.22 M 424.11 194.21 C 421.35 199.60 428.87 202.75 428.96 207.90 C 428.81 227.39 429.13 246.89 428.96 266.39 C 423.34 258.27 416.72 250.88 411.44 242.53 C 405.84 233.94 399.64 225.77 393.69 217.44 C 388.57 210.60 382.37 204.62 377.68 197.46 C 376.07 194.95 374.23 192.60 372.08 190.54 C 365.10 192.53 358.21 194.80 351.27 196.89 C 352.37 225.25 352.50 253.66 351.49 282.03 C 350.73 287.83 349.61 293.62 349.78 299.51 C 356.71 297.60 363.57 295.43 370.43 293.29 C 370.04 286.42 372.42 279.76 371.84 272.90 C 370.99 255.90 371.00 238.88 371.18 221.87 C 380.50 232.07 388.04 243.72 395.84 255.08 C 404.53 269.12 415.30 281.70 425.13 294.92 C 427.35 298.13 432.05 298.30 434.91 295.85 C 440.83 291.23 444.81 283.70 444.20 276.08 C 443.79 248.68 444.10 221.28 444.21 193.88 C 444.56 190.79 445.47 187.79 445.63 184.67 C 439.04 189.12 429.53 187.96 424.11 194.21 M 416.66 340.68 C 417.17 349.08 416.92 357.51 417.00 365.93 C 410.57 365.96 404.36 367.78 398.06 368.82 C 392.59 369.10 387.23 370.31 381.76 370.63 C 381.99 360.36 384.50 350.25 383.96 339.95 C 383.61 334.68 385.74 329.71 385.79 324.47 C 376.60 331.07 367.26 337.45 358.17 344.18 C 358.67 352.80 358.52 361.45 358.48 370.08 C 357.53 379.72 355.74 389.32 355.96 399.05 C 356.10 407.06 356.08 415.08 355.08 423.05 C 353.57 433.27 353.41 443.64 353.37 453.96 C 362.37 447.41 371.42 440.94 380.37 434.35 C 380.33 428.54 380.33 422.72 380.76 416.92 C 381.10 409.77 382.56 402.70 382.30 395.52 C 386.89 395.09 391.35 393.79 395.94 393.38 C 401.25 393.06 406.55 392.65 411.87 392.45 C 413.48 392.63 413.92 390.70 414.80 389.75 C 413.73 396.44 414.86 403.22 414.23 409.95 C 414.08 417.00 412.67 423.94 412.30 430.98 C 411.81 437.49 411.96 444.02 411.87 450.55 C 420.73 443.86 429.89 437.57 438.77 430.91 C 438.69 421.82 438.89 412.70 440.08 403.68 C 441.63 391.50 439.22 379.26 440.17 367.06 C 440.25 357.32 442.79 347.76 442.25 338.00 C 441.89 332.30 444.00 326.87 444.16 321.22 C 435.07 327.81 425.71 334.04 416.66 340.68 M 194.32 326.03 C 187.18 333.73 179.50 340.94 172.13 348.45 C 172.79 370.33 171.83 392.24 173.19 414.10 C 174.38 425.53 174.23 437.03 174.43 448.50 C 177.85 446.79 180.90 443.59 185.02 444.03 C 195.70 444.05 206.40 443.83 217.08 444.15 C 223.41 445.06 229.76 445.95 236.16 446.15 C 242.84 437.89 248.85 429.05 255.17 420.49 C 248.82 420.53 242.56 419.48 236.31 418.56 C 223.12 417.53 209.92 419.31 196.73 418.95 C 196.80 412.29 196.06 405.67 195.90 399.02 C 208.86 398.60 221.82 398.64 234.79 398.74 C 241.12 390.15 247.40 381.52 253.56 372.82 C 233.79 372.82 213.89 372.07 194.27 374.99 C 194.15 367.23 194.36 359.48 194.23 351.73 C 210.75 351.65 227.28 351.64 243.81 351.73 C 250.24 343.19 256.36 334.41 262.81 325.88 C 239.98 325.93 217.15 325.93 194.32 326.03 M 302.12 329.20 C 287.85 340.25 277.53 355.51 269.58 371.54 C 266.60 376.41 265.83 382.11 264.30 387.51 C 262.46 395.56 263.22 403.88 263.05 412.06 C 262.89 417.72 263.24 423.53 265.20 428.89 C 267.49 433.19 268.75 438.16 272.30 441.68 C 274.84 444.62 278.36 446.50 282.05 447.59 C 290.79 450.11 299.96 450.74 309.02 450.47 C 313.06 450.30 316.85 448.44 320.04 446.04 C 327.98 439.77 332.37 430.36 338.72 422.68 C 341.31 418.42 343.56 413.94 346.40 409.82 C 341.94 412.80 338.18 416.70 334.01 420.08 C 331.62 421.93 329.48 425.12 326.05 424.55 C 316.80 424.11 307.03 424.68 298.47 420.55 C 293.06 418.04 291.07 411.97 289.03 406.84 C 285.90 399.63 287.12 391.63 286.87 384.02 C 286.61 373.10 288.41 362.00 293.19 352.12 C 297.71 352.24 301.69 354.39 305.64 356.33 C 313.04 358.98 319.81 363.08 327.03 366.14 L 327.69 365.96 C 334.76 357.68 341.66 349.25 348.67 340.91 C 341.44 338.52 335.05 334.23 327.98 331.49 C 324.01 329.93 320.41 327.43 316.15 326.69 C 311.41 325.20 306.12 326.38 302.12 329.20 M 80.32 326.68 C 71.97 335.47 63.23 343.89 54.78 352.59 C 68.64 352.24 82.52 352.35 96.38 352.51 C 96.46 361.75 96.83 371.01 96.34 380.24 C 95.06 388.78 94.59 397.40 94.68 406.03 C 94.85 417.46 91.68 428.62 91.50 440.03 C 91.32 443.87 93.69 447.21 93.96 451.01 C 101.79 444.17 109.68 437.39 117.65 430.70 C 119.89 428.70 123.60 427.37 123.65 423.88 C 123.79 416.24 122.48 408.65 122.96 401.02 C 123.38 389.34 122.76 377.66 123.07 365.99 C 123.63 361.44 123.26 356.88 122.94 352.34 C 131.14 352.31 139.40 352.63 147.57 352.20 C 156.10 343.89 164.24 335.17 172.80 326.88 C 160.18 326.76 147.55 327.05 134.93 326.68 C 116.73 326.38 98.52 327.25 80.32 326.68 Z" />
</g>
<g id="#0000ffff">
<path fill="#0000ff" opacity="1.00" d=" M 39.30 59.00 C 49.87 64.49 59.63 71.41 70.27 76.77 C 84.67 83.54 98.93 90.80 112.08 99.79 C 131.67 113.64 148.56 130.80 167.34 145.66 C 175.80 152.84 184.46 159.82 192.33 167.66 C 202.67 177.69 215.05 185.67 223.85 197.22 C 228.24 202.45 232.55 207.81 237.80 212.23 C 243.54 217.15 249.21 222.18 255.05 226.97 C 263.29 221.83 270.10 214.77 277.61 208.67 C 285.60 202.24 291.28 193.58 298.53 186.42 C 303.82 180.42 310.26 175.63 316.06 170.17 C 323.69 163.80 330.62 156.64 338.29 150.31 C 344.63 144.91 350.97 139.53 357.50 134.37 C 377.61 117.02 396.73 97.94 420.31 85.26 C 437.53 75.47 455.85 67.81 473.37 58.60 C 480.69 64.36 487.93 70.23 495.26 75.99 C 485.51 78.48 476.78 83.62 467.73 87.83 C 456.88 92.99 446.57 99.21 436.14 105.15 C 422.70 113.30 410.69 123.54 399.13 134.12 C 382.11 150.16 363.41 164.33 346.82 180.83 C 345.05 182.43 343.25 184.00 341.51 185.63 C 334.89 191.99 326.87 196.93 321.48 204.51 C 311.39 218.08 297.28 227.68 284.98 239.05 C 275.01 246.39 265.86 255.07 254.61 260.49 C 245.85 252.73 235.56 246.92 226.69 239.27 C 220.29 233.70 213.70 228.35 207.41 222.66 C 202.49 218.21 198.30 213.06 194.12 207.93 C 190.24 203.09 185.42 199.13 180.58 195.30 C 174.00 189.65 167.72 183.67 161.52 177.63 C 150.49 167.94 139.62 158.08 128.35 148.68 C 111.94 133.54 95.42 118.13 75.78 107.22 C 64.64 100.55 53.02 94.74 41.29 89.19 C 32.53 84.43 24.01 79.03 14.40 76.11 C 22.77 70.50 31.03 64.74 39.30 59.00 Z" />
</g>
<g id="#ff0000ff">
<path fill="#ff0000" opacity="1.00" d=" M 14.40 76.11 C 24.01 79.03 32.53 84.43 41.29 89.19 L 41.89 89.51 C 41.09 113.66 40.68 137.81 40.88 161.97 C 41.37 179.64 41.15 197.35 42.36 215.00 C 43.49 230.63 44.09 246.30 43.86 261.97 C 43.60 301.99 43.82 342.00 43.83 382.02 C 44.66 404.06 43.71 426.15 45.06 448.18 C 35.78 452.13 26.52 456.10 17.28 460.12 C 16.64 447.75 17.78 435.37 17.62 422.99 C 18.11 388.35 17.96 353.70 18.09 319.05 C 18.30 275.71 15.78 232.40 16.33 189.05 C 16.81 151.40 16.69 113.70 14.40 76.11 Z" />
<path fill="#ff0000" opacity="1.00" d=" M 467.73 87.83 C 476.78 83.62 485.51 78.48 495.26 75.99 C 493.57 124.29 494.18 172.64 493.93 220.97 C 493.79 246.98 494.77 273.01 493.22 298.99 C 490.77 333.90 491.06 368.92 491.23 403.90 C 491.95 422.66 491.83 441.45 493.35 460.18 C 483.85 456.00 474.26 452.01 464.72 447.91 C 466.56 410.30 467.35 372.63 466.53 334.97 C 466.10 320.66 466.67 306.34 466.91 292.02 C 467.08 272.34 467.74 252.67 468.18 233.00 C 468.38 205.33 468.25 177.66 468.20 149.98 C 468.30 129.26 467.58 108.56 467.73 87.83 Z" />
</g>
<g id="#800080ff">
<path fill="#800080" opacity="1.00" d=" M 96.03 185.22 C 101.90 183.67 107.94 182.79 113.95 181.90 C 124.03 180.66 133.57 184.83 142.91 187.93 C 148.31 190.27 153.71 192.63 159.41 194.16 C 155.90 200.06 152.64 206.10 149.08 211.97 C 142.80 209.82 136.76 207.03 130.55 204.72 C 122.58 202.36 114.54 198.58 106.02 199.89 C 98.48 201.44 90.39 201.56 83.69 205.79 C 83.69 210.87 82.75 217.08 87.45 220.54 C 95.53 226.15 105.24 229.39 115.04 230.11 C 120.59 230.53 125.98 232.00 131.48 232.72 C 139.70 233.75 147.48 237.89 153.09 243.95 C 158.03 249.54 158.34 257.45 157.73 264.50 C 156.46 273.18 150.58 280.10 146.45 287.56 C 140.88 293.27 132.94 296.42 125.03 296.93 C 115.04 297.62 105.05 298.79 95.03 298.23 C 86.62 297.49 78.49 294.75 70.97 291.00 C 68.14 289.67 65.88 287.21 65.18 284.13 C 64.54 279.14 64.67 273.84 66.85 269.21 C 69.38 263.48 74.94 258.77 81.42 258.73 C 80.32 261.11 79.00 263.40 78.18 265.90 C 77.36 268.80 78.99 271.96 81.62 273.30 C 90.85 278.26 101.41 281.16 111.94 280.30 C 117.98 280.41 123.95 279.43 129.96 279.14 C 135.12 278.87 140.45 278.00 144.90 275.22 C 144.99 269.97 144.32 264.39 140.71 260.28 C 136.77 256.05 131.57 252.89 125.98 251.38 C 120.03 250.27 114.07 249.21 108.09 248.28 C 101.02 247.70 93.87 246.64 87.37 243.65 C 81.88 241.13 75.71 239.00 72.08 233.86 C 70.54 231.93 70.73 229.32 70.62 227.00 C 70.63 221.84 70.58 216.51 72.47 211.63 C 74.96 204.90 79.04 198.93 83.14 193.10 C 86.07 188.72 91.36 187.04 96.03 185.22 Z" />
<path fill="#800080" opacity="1.00" d=" M 424.11 194.21 C 429.53 187.96 439.04 189.12 445.63 184.67 C 445.47 187.79 444.56 190.79 444.21 193.88 C 444.10 221.28 443.79 248.68 444.20 276.08 C 444.81 283.70 440.83 291.23 434.91 295.85 C 432.05 298.30 427.35 298.13 425.13 294.92 C 415.30 281.70 404.53 269.12 395.84 255.08 C 388.04 243.72 380.50 232.07 371.18 221.87 C 371.00 238.88 370.99 255.90 371.84 272.90 C 372.42 279.76 370.04 286.42 370.43 293.29 C 363.57 295.43 356.71 297.60 349.78 299.51 C 349.61 293.62 350.73 287.83 351.49 282.03 C 352.50 253.66 352.37 225.25 351.27 196.89 C 358.21 194.80 365.10 192.53 372.08 190.54 C 374.23 192.60 376.07 194.95 377.68 197.46 C 382.37 204.62 388.57 210.60 393.69 217.44 C 399.64 225.77 405.84 233.94 411.44 242.53 C 416.72 250.88 423.34 258.27 428.96 266.39 C 429.13 246.89 428.81 227.39 428.96 207.90 C 428.87 202.75 421.35 199.60 424.11 194.21 Z" />
</g>
<g id="#008000ff">
<path fill="#008000" opacity="1.00" d=" M 416.66 340.68 C 425.71 334.04 435.07 327.81 444.16 321.22 C 444.00 326.87 441.89 332.30 442.25 338.00 C 442.79 347.76 440.25 357.32 440.17 367.06 C 439.22 379.26 441.63 391.50 440.08 403.68 C 438.89 412.70 438.69 421.82 438.77 430.91 C 429.89 437.57 420.73 443.86 411.87 450.55 C 411.96 444.02 411.81 437.49 412.30 430.98 C 412.67 423.94 414.08 417.00 414.23 409.95 C 414.86 403.22 413.73 396.44 414.80 389.75 C 413.92 390.70 413.48 392.63 411.87 392.45 C 406.55 392.65 401.25 393.06 395.94 393.38 C 391.35 393.79 386.89 395.09 382.30 395.52 C 382.56 402.70 381.10 409.77 380.76 416.92 C 380.33 422.72 380.33 428.54 380.37 434.35 C 371.42 440.94 362.37 447.41 353.37 453.96 C 353.41 443.64 353.57 433.27 355.08 423.05 C 356.08 415.08 356.10 407.06 355.96 399.05 C 355.74 389.32 357.53 379.72 358.48 370.08 C 358.52 361.45 358.67 352.80 358.17 344.18 C 367.26 337.45 376.60 331.07 385.79 324.47 C 385.74 329.71 383.61 334.68 383.96 339.95 C 384.50 350.25 381.99 360.36 381.76 370.63 C 387.23 370.31 392.59 369.10 398.06 368.82 C 404.36 367.78 410.57 365.96 417.00 365.93 C 416.92 357.51 417.17 349.08 416.66 340.68 Z" />
<path fill="#008000" opacity="1.00" d=" M 194.32 326.03 C 217.15 325.93 239.98 325.93 262.81 325.88 C 256.36 334.41 250.24 343.19 243.81 351.73 C 227.28 351.64 210.75 351.65 194.23 351.73 C 194.36 359.48 194.15 367.23 194.27 374.99 C 213.89 372.07 233.79 372.82 253.56 372.82 C 247.40 381.52 241.12 390.15 234.79 398.74 C 221.82 398.64 208.86 398.60 195.90 399.02 C 196.06 405.67 196.80 412.29 196.73 418.95 C 209.92 419.31 223.12 417.53 236.31 418.56 C 242.56 419.48 248.82 420.53 255.17 420.49 C 248.85 429.05 242.84 437.89 236.16 446.15 C 229.76 445.95 223.41 445.06 217.08 444.15 C 206.40 443.83 195.70 444.05 185.02 444.03 C 180.90 443.59 177.85 446.79 174.43 448.50 C 174.23 437.03 174.38 425.53 173.19 414.10 C 171.83 392.24 172.79 370.33 172.13 348.45 C 179.50 340.94 187.18 333.73 194.32 326.03 Z" />
<path fill="#008000" opacity="1.00" d=" M 302.12 329.20 C 306.12 326.38 311.41 325.20 316.15 326.69 C 320.41 327.43 324.01 329.93 327.98 331.49 C 335.05 334.23 341.44 338.52 348.67 340.91 C 341.66 349.25 334.76 357.68 327.69 365.96 L 327.03 366.14 C 319.81 363.08 313.04 358.98 305.64 356.33 C 301.69 354.39 297.71 352.24 293.19 352.12 C 288.41 362.00 286.61 373.10 286.87 384.02 C 287.12 391.63 285.90 399.63 289.03 406.84 C 291.07 411.97 293.06 418.04 298.47 420.55 C 307.03 424.68 316.80 424.11 326.05 424.55 C 329.48 425.12 331.62 421.93 334.01 420.08 C 338.18 416.70 341.94 412.80 346.40 409.82 C 343.56 413.94 341.31 418.42 338.72 422.68 C 332.37 430.36 327.98 439.77 320.04 446.04 C 316.85 448.44 313.06 450.30 309.02 450.47 C 299.96 450.74 290.79 450.11 282.05 447.59 C 278.36 446.50 274.84 444.62 272.30 441.68 C 268.75 438.16 267.49 433.19 265.20 428.89 C 263.24 423.53 262.89 417.72 263.05 412.06 C 263.22 403.88 262.46 395.56 264.30 387.51 C 265.83 382.11 266.60 376.41 269.58 371.54 C 277.53 355.51 287.85 340.25 302.12 329.20 Z" />
<path fill="#008000" opacity="1.00" d=" M 80.32 326.68 C 98.52 327.25 116.73 326.38 134.93 326.68 C 147.55 327.05 160.18 326.76 172.80 326.88 C 164.24 335.17 156.10 343.89 147.57 352.20 C 139.40 352.63 131.14 352.31 122.94 352.34 C 123.26 356.88 123.63 361.44 123.07 365.99 C 122.76 377.66 123.38 389.34 122.96 401.02 C 122.48 408.65 123.79 416.24 123.65 423.88 C 123.60 427.37 119.89 428.70 117.65 430.70 C 109.68 437.39 101.79 444.17 93.96 451.01 C 93.69 447.21 91.32 443.87 91.50 440.03 C 91.68 428.62 94.85 417.46 94.68 406.03 C 94.59 397.40 95.06 388.78 96.34 380.24 C 96.83 371.01 96.46 361.75 96.38 352.51 C 82.52 352.35 68.64 352.24 54.78 352.59 C 63.23 343.89 71.97 335.47 80.32 326.68 Z" />
</g>
</svg>
